<?xml version="1.0" standalone="no"?>
<!DOCTYPE svg PUBLIC "-//W3C//DTD SVG 20010904//EN"
 "http://www.w3.org/TR/2001/REC-SVG-20010904/DTD/svg10.dtd">
<svg version="1.0" xmlns="http://www.w3.org/2000/svg"
 width="400.000000pt" height="400.000000pt" viewBox="0 0 400.000000 400.000000"
 preserveAspectRatio="xMidYMid meet">
<metadata>
Created by potrace 1.14, written by Peter Selinger 2001-2017
</metadata>
<g transform="translate(0.000000,400.000000) scale(0.100000,-0.100000)"
fill="#000000" stroke="none">
<path d="M1769 3503 c-24 -21 -48 -41 -54 -46 -27 -20 -65 -57 -65 -62 0 -14
21 -1 80 49 36 30 66 54 67 52 2 -2 -3 -16 -12 -32 -25 -48 -20 -64 18 -63 23
1 26 3 10 6 -28 5 -27 1 -3 54 21 46 26 79 12 79 -5 0 -28 -17 -53 -37z"/>
<path d="M2027 3444 c-1 -1 -24 -5 -52 -7 -92 -10 -135 -19 -135 -29 0 -6 20
-8 48 -4 169 19 164 19 151 -2 -10 -16 -28 -20 -108 -25 -53 -3 -107 -10 -121
-15 l-25 -10 27 -7 c33 -8 140 -1 191 13 39 10 81 42 99 75 8 16 5 18 -32 15
-22 -1 -42 -3 -43 -4z"/>
<path d="M1555 3360 c-27 -5 -85 -9 -127 -9 -104 -1 -105 -20 -2 -46 42 -10
83 -25 91 -33 8 -9 23 -12 38 -8 32 8 32 26 0 26 -13 0 -34 4 -47 9 -13 5 -32
13 -43 17 -18 6 -17 8 10 14 17 4 51 8 76 9 25 0 54 8 65 16 22 16 17 17 -61
5z"/>
<path d="M2040 3341 c0 -6 19 -15 43 -21 23 -6 58 -15 77 -21 19 -5 50 -9 68
-9 64 0 30 -17 -48 -24 -44 -3 -91 -11 -106 -16 -33 -13 -244 -13 -224 0 19
12 13 16 -37 24 -50 7 -53 0 -17 -40 74 -85 56 -125 -23 -51 -18 17 -37 27
-45 23 -40 -21 -60 -35 -78 -59 -12 -15 -27 -27 -35 -27 -7 0 -19 -10 -27 -22
-8 -12 -19 -18 -26 -14 -20 12 -14 57 11 77 17 14 18 18 6 19 -8 0 -25 -9 -38
-21 -30 -28 -36 -19 -10 15 12 15 20 29 18 31 -3 2 -31 -9 -64 -24 -43 -21
-65 -38 -78 -62 -10 -19 -51 -67 -92 -108 -41 -41 -73 -76 -71 -78 2 -2 27 12
56 32 52 35 88 46 73 23 -4 -7 -8 -16 -8 -20 0 -5 -3 -7 -7 -5 -3 1 -18 -9
-33 -23 -15 -14 -29 -24 -31 -22 -10 8 -63 -10 -81 -27 -18 -17 -83 -39 -83
-28 0 2 15 20 33 40 17 20 46 53 62 74 17 20 45 53 63 74 17 20 32 41 32 46 0
6 13 16 30 23 16 7 35 19 42 27 11 14 4 15 -61 9 -40 -3 -79 -10 -87 -17 -7
-6 -19 -9 -26 -6 -8 3 -2 9 14 16 47 18 232 112 242 122 20 19 -23 8 -70 -18
-49 -28 -121 -61 -201 -91 -45 -18 -64 -41 -35 -44 9 0 26 -2 37 -3 11 -1 39
-3 63 -4 23 0 42 -5 42 -10 0 -5 -14 -22 -31 -38 -50 -46 -199 -220 -199 -232
0 -15 12 -14 72 9 29 11 59 20 65 20 7 0 -7 -30 -31 -67 -24 -38 -54 -93 -67
-123 -12 -30 -31 -68 -42 -83 -10 -16 -18 -30 -16 -32 2 -1 26 8 53 21 27 13
51 23 52 21 2 -2 -17 -41 -41 -87 -24 -47 -45 -88 -45 -92 0 -4 14 -5 30 -1
l30 6 -25 -51 c-15 -30 -46 -67 -73 -89 -25 -21 -60 -49 -77 -63 -59 -48 -304
-301 -310 -320 -4 -11 -10 -20 -15 -20 -5 0 -19 -17 -31 -37 -13 -21 -34 -53
-48 -72 -31 -41 -78 -121 -126 -217 -39 -78 -43 -93 -20 -74 8 7 15 16 15 20
0 5 16 37 36 72 20 34 45 79 56 98 27 47 137 206 168 243 113 134 344 357 370
357 5 0 0 -25 -11 -55 -10 -30 -19 -59 -19 -65 0 -14 -100 -150 -110 -150 -4
0 -6 -8 -4 -17 3 -10 -2 -27 -10 -38 -14 -18 -15 -18 -16 -2 0 21 -16 22 -24
1 -9 -22 -8 -26 6 -18 7 4 8 3 4 -4 -4 -7 -18 -12 -31 -12 -14 0 -29 -9 -35
-20 -6 -11 -16 -20 -23 -20 -19 0 -141 -141 -173 -200 -10 -19 -26 -44 -35
-55 -9 -11 -25 -35 -35 -53 -16 -29 -17 -34 -4 -43 12 -8 11 -9 -5 -5 -16 5
-24 -1 -33 -22 -6 -15 -20 -40 -30 -57 -20 -32 -59 -211 -48 -222 3 -3 0 -13
-6 -21 -20 -23 -14 -258 7 -292 3 -5 8 -48 11 -96 3 -49 9 -106 14 -127 8 -37
-5 -107 -21 -107 -7 0 -17 10 -48 46 -22 25 -40 174 -41 324 0 130 23 369 40
400 4 9 10 40 14 70 3 30 3 48 0 40 -3 -8 -9 -24 -14 -35 -13 -28 -28 -109
-50 -260 -28 -199 -16 -439 27 -522 16 -31 16 -36 -12 -130 -35 -121 -42 -227
-25 -385 10 -89 16 -118 27 -118 9 0 12 7 9 18 -13 44 -26 183 -26 275 1 103
25 208 46 197 12 -7 13 -82 2 -159 -7 -48 -7 -66 2 -71 7 -4 13 -34 14 -66 2
-33 13 -89 25 -126 l22 -68 1595 0 c1581 0 1594 0 1594 20 0 11 -12 45 -26 77
-26 59 -47 128 -68 218 -6 28 -14 55 -17 60 -19 30 -66 342 -84 560 -3 33 -11
91 -19 129 -8 38 -13 73 -10 78 3 4 1 8 -5 8 -5 0 -8 14 -5 32 5 33 -9 102
-60 288 -30 107 -39 154 -38 189 0 18 -2 20 -9 10 -5 -8 -9 -9 -10 -4 -4 43
-38 115 -82 171 -17 23 -45 59 -62 80 -69 90 -101 122 -159 161 -22 16 -51 38
-65 51 -27 25 -64 37 -80 27 -7 -4 -8 0 -4 11 5 13 3 16 -10 11 -10 -4 -17 -1
-17 6 0 8 -4 6 -10 -3 -8 -12 -10 -10 -10 9 0 16 -4 21 -14 18 -8 -3 -19 0
-25 7 -6 8 -32 19 -56 26 -25 7 -45 18 -45 24 0 6 -16 35 -35 65 -40 60 -40
61 -20 61 21 0 19 4 -15 52 -40 55 -38 65 8 38 20 -13 51 -31 67 -40 144 -83
293 -181 436 -288 92 -69 99 -77 135 -152 44 -91 67 -110 28 -22 -14 31 -28
64 -31 72 -11 28 -127 130 -213 187 -47 32 -94 65 -105 74 -11 9 -43 29 -71
45 -177 100 -304 182 -314 203 -6 13 -9 25 -8 27 2 2 23 -2 46 -8 24 -6 45 -8
49 -5 3 4 -17 46 -44 94 -28 49 -56 98 -62 111 l-12 23 68 -3 c89 -4 89 11 0
61 l-67 37 65 23 c36 13 65 28 65 35 0 6 -37 27 -81 47 -44 20 -80 40 -80 45
1 5 19 15 41 22 45 15 51 28 18 42 -13 5 -69 29 -126 54 -57 25 -110 46 -119
46 -27 0 -7 24 25 31 39 8 85 37 77 49 -3 4 -36 11 -73 15 -63 6 -195 30 -234
41 -10 3 -18 1 -18 -5z m236 -153 c27 -12 44 -23 38 -25 -11 -4 -104 34 -104
42 0 9 18 5 66 -17z m94 -43 c14 -8 19 -14 10 -14 -8 0 -24 6 -34 14 -25 19
-9 19 24 0z m115 -45 c2 -4 -7 -5 -20 -2 -14 2 -27 8 -30 12 -2 4 7 5 20 2 14
-2 27 -8 30 -12z m-80 -40 c0 -12 108 -82 160 -104 19 -8 -18 -24 -72 -31 -32
-4 -53 -11 -53 -19 0 -7 27 -28 60 -47 64 -37 60 -51 -13 -41 l-38 5 13 -29
c6 -16 20 -41 31 -56 25 -37 10 -35 -33 5 -42 38 -70 80 -70 103 0 13 3 14 14
5 18 -15 74 -23 81 -12 2 5 -12 21 -33 37 -20 15 -39 29 -42 31 -9 8 24 21 67
28 44 6 56 21 26 32 -10 3 -40 23 -68 43 -27 21 -67 41 -87 44 -59 11 -56 26
4 23 39 -1 53 -6 53 -17z m-1149 -264 c-35 -50 -62 -73 -74 -62 -8 9 48 96 62
96 8 0 19 7 26 15 7 9 15 13 18 10 3 -3 -11 -29 -32 -59z m-32 -198 c-18 -32
-78 -107 -82 -103 -5 5 77 115 85 115 2 0 1 -6 -3 -12z m-59 -287 c-9 -42 -22
-91 -28 -109 -9 -27 -9 -35 3 -43 13 -9 12 -10 -2 -6 -14 5 -18 -6 -24 -71 -4
-42 -8 -83 -8 -91 -1 -20 -57 -34 -69 -18 -26 39 57 347 120 445 l18 26 3 -28
c2 -15 -4 -63 -13 -105z m1400 44 c34 -53 75 -137 75 -154 0 -6 -4 -11 -10
-11 -5 0 -11 -8 -11 -17 -1 -17 -2 -17 -6 0 -2 9 -9 17 -14 17 -5 0 -15 12
-22 28 -6 15 -16 32 -22 39 -5 7 -16 19 -22 27 -7 8 -13 20 -13 26 0 14 -17
13 -24 -2 -3 -7 -3 -2 0 11 4 16 3 21 -6 16 -7 -4 -10 -2 -9 6 1 8 -3 26 -9
41 -6 15 -9 35 -6 43 10 25 62 -12 99 -70z m-322 -75 c-3 -12 -8 -19 -11 -16
-5 6 5 36 12 36 2 0 2 -9 -1 -20z m267 -24 c0 -3 -4 -8 -10 -11 -5 -3 -10 -1
-10 4 0 6 5 11 10 11 6 0 10 -2 10 -4z m-160 -10 c0 -2 -7 -7 -16 -10 -8 -3
-12 -2 -9 4 6 10 25 14 25 6z m-507 -63 c-7 -2 -21 -2 -30 0 -10 3 -4 5 12 5
17 0 24 -2 18 -5z m-450 -33 c-3 -12 -8 -19 -11 -16 -5 6 5 36 12 36 2 0 2 -9
-1 -20z m984 -52 c-3 -7 -5 -2 -5 12 0 14 2 19 5 13 2 -7 2 -19 0 -25z m-697
2 c0 -5 -5 -10 -11 -10 -5 0 -7 5 -4 10 3 6 8 10 11 10 2 0 4 -4 4 -10z m-3
-56 c-3 -3 -12 -4 -19 -1 -8 3 -5 6 6 6 11 1 17 -2 13 -5z m310 -146 c-3 -8
-6 -5 -6 6 -1 11 2 17 5 13 3 -3 4 -12 1 -19z m-857 -62 c0 -3 -4 -8 -10 -11
-5 -3 -10 -1 -10 4 0 6 5 11 10 11 6 0 10 -2 10 -4z m1111 -69 c-10 -9 -11 -8
-5 6 3 10 9 15 12 12 3 -3 0 -11 -7 -18z m-534 -113 c-3 -3 -12 -4 -19 -1 -8
3 -5 6 6 6 11 1 17 -2 13 -5z m210 -180 c-3 -3 -12 -4 -19 -1 -8 3 -5 6 6 6
11 1 17 -2 13 -5z m40 0 c-3 -3 -12 -4 -19 -1 -8 3 -5 6 6 6 11 1 17 -2 13 -5z
m-24 -211 c-7 -2 -21 -2 -30 0 -10 3 -4 5 12 5 17 0 24 -2 18 -5z m-36 -85
c-3 -8 -6 -5 -6 6 -1 11 2 17 5 13 3 -3 4 -12 1 -19z m-1329 -219 c-3 -8 -7
-3 -11 10 -4 17 -3 21 5 13 5 -5 8 -16 6 -23z m1389 -301 c-3 -8 -6 -5 -6 6
-1 11 2 17 5 13 3 -3 4 -12 1 -19z m-1142 -18 c3 -5 1 -10 -4 -10 -6 0 -11 5
-11 10 0 6 2 10 4 10 3 0 8 -4 11 -10z"/>
<path d="M3304 1798 c7 -24 23 -70 34 -103 53 -153 124 -465 157 -685 14 -91
28 -181 31 -200 2 -19 7 -88 9 -153 2 -65 8 -124 13 -130 11 -15 37 -111 56
-207 32 -159 66 -313 71 -318 15 -15 13 14 -5 99 -56 253 -76 338 -100 414
-11 35 -19 89 -19 129 0 72 -18 291 -27 338 -3 15 -12 69 -19 120 -28 186
-119 543 -146 573 -5 5 -9 18 -9 28 0 27 -41 137 -51 137 -4 0 -2 -19 5 -42z"/>
</g>
</svg>
